<?xml version="1.0" encoding="utf-8"?>
<!-- Generator: Adobe Illustrator 23.0.3, SVG Export Plug-In . SVG Version: 6.00 Build 0)  -->
<svg version="1.1" id="Warstwa_1" xmlns="http://www.w3.org/2000/svg" xmlns:xlink="http://www.w3.org/1999/xlink" x="0px" y="0px"
	 viewBox="0 0 48 48" style="enable-background:new 0 0 48 48;" xml:space="preserve">
<style type="text/css">
	.st0{display:none;}
	.st1{display:inline;}
	.st2{fill:#007BFC;}
</style>
<title>os-centos-56</title>
<g id="centos" class="st0">
	<g id="_56-11" class="st1">
		<path class="st2" d="M26.6,24.3c0.8,0.8,2,0.8,2.8,0l9.9-9.9c0.8-0.8,0.8-2,0-2.8l0,0l-9.9-9.9c-0.8-0.8-2-0.8-2.8,0l-9.9,9.9
			c-0.8,0.8-0.8,2,0,2.8l0,0L26.6,24.3z"/>
		<path class="st2" d="M54.3,26.6l-9.9-9.9c-0.8-0.8-2-0.8-2.8,0l0,0l-9.9,9.9c-0.8,0.8-0.8,2,0,2.8l9.9,9.9
			c0.4,0.4,0.9,0.6,1.4,0.6s1-0.2,1.4-0.6l9.9-9.9C55.1,28.6,55.1,27.4,54.3,26.6z"/>
		<path class="st2" d="M29.4,31.7c-0.8-0.8-2-0.8-2.8,0l-9.9,9.9c-0.8,0.8-0.8,2,0,2.8l0,0l9.9,9.9c0.8,0.8,2,0.8,2.8,0l9.9-9.9
			c0.8-0.8,0.8-2,0-2.8l0,0L29.4,31.7z"/>
		<path class="st2" d="M13,39.9c0.5,0,1-0.2,1.4-0.6l9.9-9.9c0.8-0.8,0.8-2,0-2.8l-9.9-9.9c-0.8-0.8-2-0.8-2.8,0l0,0l-9.9,9.9
			c-0.8,0.8-0.8,2,0,2.8l9.9,9.9C11.9,39.7,12.5,39.9,13,39.9z"/>
		<path class="st2" d="M46.6,14.3c0.4,0.4,0.9,0.6,1.4,0.6c0.3,0,0.5-0.1,0.8-0.1c0.7-0.3,1.2-1,1.2-1.9V8c0-1.1-0.9-2-2-2h-4.8
			c-0.8,0-1.5,0.5-1.9,1.2C41,8,41.2,8.8,41.7,9.4L46.6,14.3z"/>
		<path class="st2" d="M7.2,14.7c0.2,0.1,0.5,0.1,0.8,0.1c0.5,0,1-0.2,1.4-0.6l4.9-4.9C14.8,8.8,15,8,14.7,7.2
			c-0.3-0.7-1-1.2-1.8-1.2H8C6.9,6,6,6.9,6,8v4.9C6,13.7,6.5,14.4,7.2,14.7z"/>
		<path class="st2" d="M48.8,41.3c-0.7-0.3-1.6-0.1-2.2,0.4l-4.9,4.9c-0.6,0.6-0.7,1.4-0.4,2.2c0.3,0.7,1,1.2,1.8,1.2H48
			c1.1,0,2-0.9,2-2v-4.8C50,42.3,49.5,41.6,48.8,41.3z"/>
		<path class="st2" d="M9.4,41.7C8.8,41.2,8,41,7.2,41.3c-0.7,0.3-1.2,1-1.2,1.8V48c0,1.1,0.9,2,2,2h4.9c0.8,0,1.5-0.5,1.9-1.2
			c0.3-0.7,0.1-1.6-0.4-2.2L9.4,41.7z"/>
	</g>
</g>
<g>
	<path class="st2" d="M22.9,20.8c0.3,0.3,0.7,0.4,1.1,0.4s0.8-0.1,1.1-0.4l8.1-8.1c0.3-0.3,0.4-0.7,0.4-1.1s-0.2-0.8-0.4-1.1
		l-8.1-8.1c-0.6-0.6-1.5-0.6-2.1,0l-8.1,8.1c-0.3,0.3-0.4,0.7-0.4,1.1s0.2,0.8,0.4,1.1L22.9,20.8z"/>
	<path class="st2" d="M45.6,22.9l-8.1-8.1c-0.6-0.6-1.5-0.6-2.1,0l-8.1,8.1c-0.6,0.6-0.6,1.5,0,2.1l8.1,8.1c0.3,0.3,0.7,0.4,1.1,0.4
		s0.8-0.1,1.1-0.4l8.1-8.1C46.1,24.5,46.1,23.5,45.6,22.9z"/>
	<path class="st2" d="M25.1,27.2c-0.6-0.6-1.5-0.6-2.1,0l-8.1,8.1c-0.3,0.3-0.4,0.7-0.4,1.1s0.2,0.8,0.4,1.1l8.1,8.1
		c0.3,0.3,0.7,0.4,1.1,0.4s0.8-0.1,1.1-0.4l8.1-8.1c0.3-0.3,0.4-0.7,0.4-1.1s-0.2-0.8-0.4-1.1L25.1,27.2z"/>
	<path class="st2" d="M11.6,33.6c0.4,0,0.8-0.1,1.1-0.4l8.1-8.1c0.6-0.6,0.6-1.5,0-2.1l-8.1-8.1c-0.6-0.6-1.5-0.6-2.1,0l-8.1,8.1
		c-0.6,0.6-0.6,1.5,0,2.1l8.1,8.1C10.9,33.5,11.2,33.6,11.6,33.6z"/>
	<path class="st2" d="M39.4,12.6c0.3,0.3,0.7,0.4,1.1,0.4c0.2,0,0.4,0,0.6-0.1c0.6-0.2,0.9-0.8,0.9-1.4v-4C42,6.7,41.3,6,40.5,6h-4
		c-0.6,0-1.2,0.4-1.4,0.9S35,8.1,35.4,8.6L39.4,12.6z"/>
	<path class="st2" d="M6.9,12.9C7.1,13,7.3,13,7.5,13c0.4,0,0.8-0.2,1.1-0.4l4-4c0.4-0.4,0.6-1.1,0.3-1.6S12.1,6,11.5,6h-4
		C6.7,6,6,6.7,6,7.5v4C6,12.1,6.4,12.7,6.9,12.9z"/>
	<path class="st2" d="M41.1,35.1c-0.6-0.2-1.2-0.1-1.6,0.3l-4,4c-0.4,0.4-0.6,1.1-0.3,1.6s0.8,0.9,1.4,0.9h4c0.8,0,1.5-0.7,1.5-1.5
		v-4C42,35.9,41.6,35.3,41.1,35.1z"/>
	<path class="st2" d="M8.6,35.4c-0.4-0.4-1.1-0.6-1.6-0.3C6.4,35.3,6,35.9,6,36.5v4C6,41.3,6.7,42,7.5,42h4c0.6,0,1.2-0.4,1.4-0.9
		s0.1-1.2-0.3-1.6L8.6,35.4z"/>
</g>
</svg>
