<?xml version="1.0" encoding="utf-8"?>
<!-- Generator: Adobe Illustrator 23.0.3, SVG Export Plug-In . SVG Version: 6.00 Build 0)  -->
<svg version="1.1" id="Warstwa_1" xmlns="http://www.w3.org/2000/svg" xmlns:xlink="http://www.w3.org/1999/xlink" x="0px" y="0px"
	 viewBox="0 0 48 48" style="enable-background:new 0 0 48 48;" xml:space="preserve">
<style type="text/css">
	.st0{fill:#007BFC;}
</style>
<g>
	<path class="st0" d="M24,2C11.9,2,2,11.9,2,24s9.9,22,22,22s22-9.9,22-22S36.1,2,24,2z M43,24c0,2.5-7.2,6-19,6
		c-2,0-3.9-0.1-5.7-0.3C18.1,27.9,18,25.9,18,24c0-11.8,3.5-19,6-19C34.5,5,43,13.5,43,24z"/>
	<path class="st0" d="M23.1,14.2C22.4,17.1,22,20.4,22,24l0,0.5c0,0.8,0.7,1.5,1.5,1.5l0.5,0c3.6,0,6.9-0.4,9.8-1.1
		c0.7-0.2,1.2-0.8,1.2-1.5c-0.3-5.6-4.8-10.1-10.4-10.4C23.9,13,23.2,13.5,23.1,14.2z"/>
</g>
</svg>
